<?xml version="1.0" encoding="utf-8"?>
<!-- Generator: Adobe Illustrator 15.0.0, SVG Export Plug-In . SVG Version: 6.00 Build 0)  -->
<!DOCTYPE svg PUBLIC "-//W3C//DTD SVG 1.1//EN" "http://www.w3.org/Graphics/SVG/1.1/DTD/svg11.dtd">
<svg version="1.1" id="Layer_1" xmlns="http://www.w3.org/2000/svg" xmlns:xlink="http://www.w3.org/1999/xlink" x="0px" y="0px"
	 width="96.5px" height="35.5px" viewBox="0 0 96.5 35.5" enable-background="new 0 0 96.5 35.5" xml:space="preserve">
<g>
	<path fill="#FFFFFF" d="M22.385,20.548l-2.209-5.842H12.16l-2.209,5.842H7.256L14.895,1h2.658l7.641,19.548H22.385z M16.168,4.145
		l-3.109,8.202h6.218L16.168,4.145z M30.512,20.586h-2.397L23.283,7.104h2.659l3.444,10.448l3.371-10.448h2.584L30.512,20.586z
		 M44.18,20.548l-0.299-1.798c-0.562,0.824-2.136,2.098-3.971,2.098c-2.434,0-3.932-1.461-3.932-3.745
		c0-3.034,2.396-4.532,7.752-5.056V11.26c0-1.685-1.012-2.283-2.584-2.283c-1.648,0-2.885,0.561-4.344,1.347l-0.15-2.209
		c1.648-0.749,2.921-1.274,4.681-1.274c3.259,0,4.868,1.311,4.868,4.307v9.4H44.18z M43.693,13.92
		c-4.719,0.486-5.244,2.059-5.244,2.995c0,0.937,0.749,1.798,1.984,1.798c1.274,0,2.136-0.748,3.26-1.872V13.92z M53.991,18.675
		c-0.787,0-1.423-0.224-1.873-0.71c-0.636-0.712-0.636-1.274-0.636-2.51V9.164h3.744l-0.188-2.06h-3.557V2.348l-2.323,0.374v4.382
		h-1.946v2.06h1.946v6.253c0,2.135,0.301,2.809,0.638,3.371c0.973,1.611,2.809,1.76,3.557,1.76c0.562,0,1.236-0.112,1.873-0.3
		l-0.149-1.797C54.702,18.601,54.328,18.675,53.991,18.675 M76.123,6.917c-1.91-0.375-3.22,0.711-4.381,2.321l-0.3-2.172h-2.097
		v13.482h2.396v-8.613c0.861-1.348,1.609-2.173,2.695-2.51c0.975-0.299,1.574-0.112,2.022,0C76.497,9.425,76.161,6.917,76.123,6.917
		 M88.369,18.788c-1.086,0.749-2.584,1.985-5.205,1.985c-1.311,0-2.846-0.263-4.307-1.761c-1.648-1.722-1.836-4.269-1.836-5.729
		c0-3.82,2.359-6.329,5.805-6.329c2.884,0,5.02,2.434,5.355,5.243c0.112,0.786,0.076,1.61,0.076,2.059h-8.727
		c0.075,1.761,0.975,4.158,3.595,4.158c1.61,0,3.146-0.562,4.569-1.461L88.369,18.788z M85.822,12.347
		c-0.037-0.525-0.374-3.183-2.996-3.183c-0.786,0-1.723,0.299-2.357,1.086c-0.676,0.748-0.789,1.497-0.862,2.097H85.822z
		 M64.926,20.548l-0.3-1.498c-1.049,1.198-2.62,1.76-3.743,1.76c-0.75,0-2.511-0.262-3.484-1.909
		c-0.374-0.6-0.674-1.274-0.674-3.446V7.066h2.359v8.389c0,1.273,0,1.91,0.637,2.621c0.449,0.487,1.086,0.749,1.873,0.749
		c0.974,0,2.097-0.86,2.957-1.872V7.066h2.397v13.482H64.926z"/>
	<path fill="#FFFFFF" d="M4.222,28.524h2.247v3.184c-0.338,0.112-0.713,0.187-1.049,0.261c-0.375,0.075-0.786,0.075-1.236,0.075
		c-1.012,0-1.76-0.299-2.32-0.898C1.264,30.584,1,29.723,1,28.674C1,28,1.15,27.402,1.412,26.877c0.263-0.525,0.674-0.9,1.199-1.162
		c0.524-0.262,1.123-0.412,1.797-0.412c0.711,0,1.348,0.113,1.947,0.375l-0.299,0.674c-0.6-0.262-1.161-0.375-1.723-0.375
		c-0.787,0-1.424,0.225-1.873,0.712c-0.448,0.487-0.674,1.124-0.674,1.984c0,0.9,0.226,1.574,0.637,2.023
		c0.449,0.45,1.086,0.674,1.947,0.674c0.449,0,0.898-0.037,1.349-0.15v-2.022H4.222V28.524z"/>
	<path fill="#FFFFFF" d="M9.988,32.044c-0.711,0-1.311-0.224-1.723-0.674c-0.412-0.449-0.637-1.048-0.637-1.835
		c0-0.786,0.188-1.423,0.6-1.872c0.375-0.45,0.898-0.712,1.572-0.712c0.6,0,1.086,0.188,1.461,0.599
		c0.375,0.413,0.524,0.936,0.524,1.61v0.488H8.378c0,0.562,0.15,1.01,0.449,1.311c0.263,0.299,0.675,0.448,1.161,0.448
		c0.523,0,1.049-0.112,1.572-0.336v0.674c-0.262,0.112-0.523,0.187-0.748,0.262C10.625,32.008,10.325,32.044,9.988,32.044
		 M9.801,27.588c-0.412,0-0.711,0.112-0.936,0.375c-0.225,0.261-0.375,0.599-0.412,1.085h2.584c0-0.486-0.111-0.824-0.299-1.085
		C10.475,27.701,10.176,27.588,9.801,27.588"/>
	<path fill="#FFFFFF" d="M14.67,31.446c0.148,0,0.262,0,0.375-0.038c0.111-0.037,0.224-0.037,0.299-0.075v0.562
		c-0.075,0.038-0.188,0.074-0.375,0.113c-0.15,0.037-0.299,0.037-0.411,0.037c-0.937,0-1.424-0.487-1.424-1.498v-2.921h-0.711
		v-0.374l0.711-0.3l0.3-1.048h0.449v1.123h1.423v0.562h-1.423v2.883c0,0.3,0.075,0.524,0.225,0.674
		C14.258,31.296,14.445,31.446,14.67,31.446"/>
	<polygon fill="#FFFFFF" points="22.496,31.97 18.826,31.97 18.826,25.379 22.496,25.379 22.496,26.053 19.612,26.053 
		19.612,28.151 22.347,28.151 22.347,28.824 19.612,28.824 19.612,31.221 22.496,31.221 	"/>
	<path fill="#FFFFFF" d="M27.215,31.97v-3.183c0-0.412-0.074-0.712-0.262-0.899s-0.486-0.299-0.898-0.299
		c-0.525,0-0.899,0.149-1.125,0.411c-0.224,0.263-0.373,0.749-0.373,1.387v2.583h-0.75v-4.943h0.6l0.111,0.674h0.076
		c0.149-0.225,0.375-0.412,0.637-0.562c0.262-0.15,0.599-0.187,0.936-0.187c0.6,0,1.049,0.149,1.348,0.412
		c0.301,0.299,0.451,0.749,0.451,1.385v3.221H27.215z"/>
	<path fill="#FFFFFF" d="M33.506,27.027v0.487l-0.897,0.111c0.073,0.113,0.149,0.225,0.224,0.412
		c0.075,0.187,0.112,0.375,0.112,0.562c0,0.487-0.149,0.862-0.486,1.162c-0.337,0.298-0.786,0.449-1.348,0.449
		c-0.149,0-0.3,0-0.413-0.038c-0.299,0.15-0.486,0.374-0.486,0.636c0,0.151,0.037,0.225,0.15,0.3
		c0.111,0.075,0.299,0.113,0.561,0.113h0.861c0.525,0,0.938,0.112,1.236,0.336c0.3,0.225,0.412,0.563,0.412,0.974
		c0,0.562-0.225,0.974-0.674,1.236c-0.449,0.3-1.086,0.412-1.91,0.412c-0.637,0-1.123-0.112-1.498-0.374
		c-0.338-0.225-0.524-0.562-0.524-1.012c0-0.299,0.112-0.561,0.3-0.786s0.449-0.374,0.823-0.45
		c-0.112-0.074-0.224-0.149-0.299-0.262c-0.075-0.112-0.112-0.262-0.112-0.411c0-0.187,0.037-0.338,0.148-0.487
		c0.113-0.15,0.263-0.262,0.451-0.375c-0.263-0.112-0.451-0.299-0.638-0.524c-0.149-0.262-0.224-0.524-0.224-0.861
		c0-0.525,0.148-0.936,0.486-1.236c0.336-0.3,0.787-0.449,1.386-0.449c0.262,0,0.487,0.037,0.712,0.075H33.506 M29.574,32.793
		c0,0.263,0.111,0.487,0.337,0.6c0.226,0.149,0.562,0.224,0.974,0.224c0.637,0,1.086-0.075,1.386-0.262s0.45-0.449,0.45-0.749
		c0-0.262-0.075-0.449-0.263-0.562c-0.149-0.112-0.487-0.149-0.937-0.149h-0.898c-0.337,0-0.599,0.075-0.787,0.225
		C29.649,32.27,29.574,32.494,29.574,32.793 M29.986,28.599c0,0.337,0.111,0.6,0.3,0.787c0.187,0.187,0.449,0.262,0.824,0.262
		c0.711,0,1.085-0.338,1.085-1.049c0-0.749-0.374-1.124-1.085-1.124c-0.337,0-0.638,0.113-0.824,0.301
		C30.098,27.963,29.986,28.224,29.986,28.599"/>
	<path fill="#FFFFFF" d="M37.552,31.969l-0.15-0.71h-0.038c-0.262,0.299-0.486,0.523-0.748,0.636
		c-0.263,0.113-0.562,0.15-0.898,0.15c-0.488,0-0.862-0.112-1.162-0.374c-0.262-0.263-0.412-0.6-0.412-1.086
		c0-1.012,0.787-1.498,2.396-1.574l0.824-0.037v-0.262c0-0.374-0.074-0.675-0.262-0.862c-0.15-0.187-0.412-0.261-0.786-0.261
		c-0.412,0-0.862,0.112-1.386,0.374l-0.225-0.599c0.225-0.15,0.523-0.225,0.785-0.3c0.301-0.075,0.562-0.112,0.862-0.112
		c0.599,0,1.011,0.112,1.312,0.374c0.299,0.263,0.41,0.675,0.41,1.236v3.371h-0.522V31.969z M35.865,31.446
		c0.45,0,0.824-0.113,1.086-0.375c0.262-0.262,0.412-0.599,0.412-1.086v-0.45l-0.748,0.038c-0.6,0.038-1.012,0.113-1.273,0.263
		c-0.262,0.149-0.374,0.411-0.374,0.749c0,0.261,0.073,0.486,0.261,0.599C35.342,31.371,35.566,31.446,35.865,31.446"/>
	<path fill="#FFFFFF" d="M43.656,27.027v0.487l-0.899,0.111c0.075,0.113,0.149,0.225,0.224,0.412
		c0.075,0.187,0.112,0.375,0.112,0.562c0,0.487-0.149,0.862-0.486,1.162c-0.337,0.298-0.786,0.449-1.348,0.449
		c-0.149,0-0.3,0-0.412-0.038c-0.3,0.15-0.487,0.374-0.487,0.636c0,0.151,0.037,0.225,0.15,0.3c0.111,0.075,0.299,0.113,0.562,0.113
		h0.86c0.524,0,0.937,0.112,1.235,0.336c0.3,0.225,0.412,0.563,0.412,0.974c0,0.562-0.225,0.974-0.674,1.236
		c-0.449,0.3-1.086,0.412-1.91,0.412c-0.637,0-1.123-0.112-1.498-0.374c-0.338-0.225-0.524-0.562-0.524-1.012
		c0-0.299,0.113-0.561,0.3-0.786c0.188-0.225,0.449-0.374,0.824-0.45c-0.111-0.074-0.225-0.149-0.3-0.262
		c-0.075-0.112-0.112-0.262-0.112-0.411c0-0.187,0.037-0.338,0.15-0.487c0.111-0.15,0.262-0.262,0.449-0.375
		c-0.263-0.112-0.449-0.299-0.638-0.524c-0.149-0.262-0.224-0.524-0.224-0.861c0-0.525,0.148-0.936,0.486-1.236
		s0.787-0.449,1.386-0.449c0.262,0,0.487,0.037,0.712,0.075H43.656 M39.723,32.793c0,0.263,0.113,0.487,0.337,0.6
		c0.226,0.149,0.562,0.224,0.974,0.224c0.638,0,1.086-0.075,1.387-0.262c0.299-0.187,0.449-0.449,0.449-0.749
		c0-0.262-0.076-0.449-0.263-0.562c-0.149-0.112-0.487-0.149-0.936-0.149h-0.899c-0.337,0-0.599,0.075-0.785,0.225
		C39.798,32.27,39.723,32.494,39.723,32.793 M40.135,28.599c0,0.337,0.113,0.6,0.3,0.787s0.449,0.262,0.824,0.262
		c0.711,0,1.086-0.338,1.086-1.049c0-0.749-0.375-1.124-1.086-1.124c-0.337,0-0.638,0.113-0.824,0.301
		C40.248,27.963,40.135,28.224,40.135,28.599"/>
	<path fill="#FFFFFF" d="M46.726,32.044c-0.711,0-1.31-0.224-1.722-0.674c-0.412-0.449-0.638-1.048-0.638-1.835
		c0-0.786,0.188-1.423,0.599-1.872c0.375-0.45,0.899-0.712,1.574-0.712c0.6,0,1.086,0.188,1.461,0.599
		c0.373,0.413,0.523,0.936,0.523,1.61v0.488h-3.408c0,0.562,0.15,1.01,0.449,1.311c0.263,0.299,0.675,0.448,1.161,0.448
		c0.524,0,1.049-0.112,1.573-0.336v0.674c-0.262,0.112-0.524,0.187-0.75,0.262C47.362,32.008,47.062,32.044,46.726,32.044
		 M46.539,27.588c-0.412,0-0.712,0.112-0.937,0.375c-0.226,0.261-0.375,0.599-0.412,1.085h2.584c0-0.486-0.112-0.824-0.299-1.085
		C47.213,27.701,46.914,27.588,46.539,27.588"/>
	<path fill="#FFFFFF" d="M53.168,31.296h-0.039c-0.336,0.487-0.86,0.749-1.535,0.749c-0.636,0-1.16-0.224-1.498-0.674
		c-0.375-0.45-0.523-1.048-0.523-1.873c0-0.823,0.188-1.423,0.523-1.872c0.338-0.449,0.862-0.674,1.498-0.674
		c0.675,0,1.162,0.225,1.535,0.711h0.076l-0.037-0.337v-0.337v-2.021h0.748v7.002h-0.6L53.168,31.296z M51.67,31.408
		c0.523,0,0.86-0.149,1.123-0.412c0.225-0.262,0.336-0.711,0.336-1.347v-0.151c0-0.711-0.111-1.198-0.336-1.498
		c-0.226-0.299-0.6-0.449-1.123-0.449c-0.451,0-0.787,0.187-1.012,0.524c-0.225,0.337-0.337,0.825-0.337,1.423
		c0,0.638,0.112,1.087,0.337,1.423C50.883,31.259,51.219,31.408,51.67,31.408"/>
	<path fill="#FFFFFF" d="M59.422,31.446c0.148,0,0.262,0,0.375-0.038c0.111-0.037,0.224-0.037,0.299-0.075v0.562
		c-0.075,0.038-0.188,0.074-0.375,0.113c-0.15,0.037-0.299,0.037-0.412,0.037c-0.937,0-1.424-0.487-1.424-1.498v-2.921h-0.711
		v-0.374l0.711-0.3l0.301-1.048h0.449v1.123h1.422v0.562h-1.422v2.883c0,0.3,0.074,0.524,0.225,0.674
		C59.01,31.333,59.196,31.446,59.422,31.446"/>
	<path fill="#FFFFFF" d="M65.338,29.498c0,0.787-0.187,1.423-0.599,1.873c-0.412,0.449-0.974,0.674-1.687,0.674
		c-0.449,0-0.822-0.113-1.16-0.3c-0.338-0.225-0.6-0.487-0.787-0.899c-0.187-0.374-0.262-0.824-0.262-1.348
		c0-0.786,0.188-1.423,0.601-1.873c0.411-0.449,0.973-0.673,1.685-0.673c0.674,0,1.235,0.224,1.647,0.673
		C65.151,28.075,65.338,28.712,65.338,29.498 M61.594,29.498c0,0.637,0.111,1.124,0.375,1.423c0.262,0.337,0.635,0.487,1.123,0.487
		c0.486,0,0.86-0.15,1.123-0.487c0.262-0.337,0.375-0.824,0.375-1.423c0-0.637-0.113-1.086-0.375-1.423
		c-0.263-0.337-0.637-0.487-1.123-0.487c-0.488,0-0.861,0.15-1.086,0.487C61.705,28.375,61.594,28.861,61.594,29.498"/>
	<polygon fill="#FFFFFF" points="71.18,31.97 70.432,31.97 70.432,26.053 68.334,26.053 68.334,25.379 73.24,25.379 73.24,26.053 
		71.143,26.053 71.143,31.97 	"/>
	<path fill="#FFFFFF" d="M77.135,31.969l-0.15-0.71h-0.037c-0.262,0.299-0.487,0.523-0.749,0.636
		c-0.263,0.113-0.562,0.15-0.898,0.15c-0.487,0-0.862-0.112-1.161-0.374c-0.263-0.263-0.412-0.6-0.412-1.086
		c0-1.012,0.787-1.498,2.396-1.574l0.824-0.037v-0.262c0-0.374-0.075-0.675-0.262-0.862c-0.15-0.187-0.449-0.261-0.787-0.261
		c-0.411,0-0.861,0.112-1.385,0.374l-0.226-0.562c0.226-0.149,0.524-0.225,0.786-0.3c0.3-0.074,0.562-0.112,0.861-0.112
		c0.6,0,1.012,0.112,1.312,0.375c0.3,0.262,0.411,0.673,0.411,1.235v3.37H77.135z M75.449,31.446c0.449,0,0.824-0.113,1.086-0.375
		c0.263-0.262,0.412-0.599,0.412-1.086v-0.45l-0.749,0.038c-0.599,0.038-1.011,0.113-1.273,0.263
		c-0.262,0.149-0.374,0.411-0.374,0.749c0,0.261,0.074,0.486,0.262,0.599C74.925,31.371,75.15,31.446,75.449,31.446"/>
	<rect x="79.232" y="24.968" fill="#FFFFFF" width="0.749" height="7.002"/>
	<path fill="#FFFFFF" d="M83.65,32.044c-0.712,0-1.31-0.224-1.723-0.674c-0.412-0.449-0.637-1.048-0.637-1.835
		c0-0.786,0.188-1.423,0.6-1.872c0.374-0.45,0.898-0.712,1.573-0.712c0.599,0,1.086,0.188,1.46,0.599
		c0.375,0.413,0.523,0.936,0.523,1.61v0.488h-3.406c0,0.562,0.148,1.01,0.449,1.311c0.262,0.299,0.674,0.448,1.16,0.448
		c0.524,0,1.049-0.112,1.573-0.336v0.674c-0.263,0.112-0.524,0.187-0.749,0.262C84.25,32.008,83.988,32.044,83.65,32.044
		 M83.426,27.588c-0.412,0-0.711,0.112-0.936,0.375c-0.226,0.261-0.375,0.599-0.412,1.085h2.584c0-0.486-0.112-0.824-0.299-1.085
		C84.137,27.701,83.839,27.588,83.426,27.588"/>
	<path fill="#FFFFFF" d="M90.092,31.97v-3.183c0-0.412-0.074-0.712-0.262-0.899s-0.486-0.299-0.861-0.299
		c-0.524,0-0.898,0.149-1.123,0.411c-0.226,0.263-0.375,0.749-0.375,1.387v2.583h-0.75v-4.943h0.601l0.11,0.674h0.039
		c0.149-0.225,0.375-0.412,0.637-0.562c0.262-0.15,0.599-0.187,0.936-0.187c0.6,0,1.049,0.149,1.348,0.412
		c0.301,0.299,0.451,0.749,0.451,1.385v3.221H90.092z"/>
	<path fill="#FFFFFF" d="M93.949,31.446c0.148,0,0.262,0,0.375-0.038c0.111-0.037,0.224-0.037,0.299-0.075v0.562
		c-0.075,0.038-0.188,0.074-0.374,0.113c-0.151,0.037-0.3,0.037-0.412,0.037c-0.937,0-1.424-0.487-1.424-1.498v-2.921h-0.711v-0.374
		l0.711-0.3l0.3-1.048h0.449v1.123h1.424v0.562h-1.424v2.883c0,0.3,0.076,0.524,0.225,0.674
		C93.5,31.333,93.688,31.446,93.949,31.446"/>
</g>
</svg>
