<?xml version="1.0" encoding="utf-8"?>
<!-- Generator: Adobe Illustrator 15.0.0, SVG Export Plug-In . SVG Version: 6.00 Build 0)  -->
<!DOCTYPE svg PUBLIC "-//W3C//DTD SVG 1.1//EN" "http://www.w3.org/Graphics/SVG/1.1/DTD/svg11.dtd">
<svg version="1.1" id="Layer_1" xmlns="http://www.w3.org/2000/svg" xmlns:xlink="http://www.w3.org/1999/xlink" x="0px" y="0px"
	 width="128.617px" height="37.191px" viewBox="0 0 128.617 37.191" enable-background="new 0 0 128.617 37.191"
	 xml:space="preserve">
<g>
	<g>
		<defs>
			<rect id="SVGID_1_" x="2" width="122.6" height="34.271"/>
		</defs>
		<clipPath id="SVGID_2_">
			<use xlink:href="#SVGID_1_"  overflow="visible"/>
		</clipPath>
		<path clip-path="url(#SVGID_2_)" fill="#FFFFFF" d="M23.334,29.664c-2.316,0.886-3.915,1.199-3.915,1.199
			c-0.138-0.108-0.306-0.304-0.386-0.394c-0.235-0.262-0.318-0.426-0.318-0.426s2.171-0.527,4.175-1.248
			c2.242-0.806,4.445-2.236,4.445-2.236s0.069,0.193,0.112,0.449c0.042,0.254,0.07,0.467,0.07,0.467S25.804,28.717,23.334,29.664
			 M16.936,20.594c-5.722,1.465-8.979,0.67-8.979,0.67s-0.128-0.784-0.181-1.592c-0.027-0.399-0.07-1.359-0.07-1.359
			s3.493,0.693,8.335-0.533c5.462-1.383,8.274-4.365,8.274-4.365s0.574,0.703,0.862,1.103c0.292,0.402,0.959,1.4,0.959,1.4
			S22.659,19.127,16.936,20.594 M8.411,12.293c0.111-0.496,0.223-0.978,0.223-0.978s1.155,0.199,2.365,0.097
			c1.212-0.103,2.55-0.425,2.55-0.425l0.628,2.345c0,0-1.487,0.52-3.161,0.625c-1.739,0.11-2.905-0.174-2.905-0.174
			S8.303,12.789,8.411,12.293 M27.271,7.469c0.109-0.386,0.186-0.771,0.186-0.771s1.018,0.732,1.499,1.175
			c0.501,0.461,1.248,1.241,1.248,1.241s-0.087,0.537-0.184,0.905c-0.078,0.29-0.125,0.411-0.255,0.785c0,0-0.804-0.826-1.42-1.365
			c-0.57-0.499-1.417-1.127-1.417-1.127S27.169,7.823,27.271,7.469 M33.781,12.832c-0.494-2.422-1.003-3.21-1.003-3.21
			s1.129,6.04-4.333,10.547c-0.283-0.678-0.644-1.467-1.076-2.25c-0.378-0.684-0.811-1.375-1.231-2.005
			c2.121-1.894,3.148-3.803,3.641-5.114c0.782,0.859,1.098,1.43,1.098,1.43s0.248-0.145,0.493-1.08
			c0.624-2.388-0.181-4.296-0.181-4.296s-0.331-0.559-1.651-1.959c-1.731-1.833-3.819-2.917-3.819-2.917s2.059,1.985,1.794,4.405
			C27.5,6.492,27.485,6.59,27.469,6.69c-0.119-0.079-0.238-0.155-0.358-0.225c-2.966-1.744-5.181-2.111-5.181-2.111
			s-0.349,3.319-5.863,5.741c-0.9,0.396-1.742,0.675-2.516,0.877l-0.623-2.363c0,0-1.393,0.446-2.9,0.472
			c-1.33,0.021-3.276-0.119-3.394-2.322C6.541,5.005,8.447,3.131,8.447,3.131S7.239,4.056,6.208,5.097
			C5.033,6.285,3.926,8.376,3.926,8.376s-0.323,0.51-0.184,1.475c0.098,0.686,0.681,2.411,2.526,3.296
			c0.609,0.292,1.228,0.494,1.839,0.628c-0.217,1.238-0.413,2.784-0.398,4.258c0.001,0.091,0.003,0.181,0.005,0.271
			c-1.218-0.205-2.232-0.537-2.95-0.965c-2.308-1.374-2.58-4.146-2.58-4.146s-0.687,4.226,0.599,7.971
			c0.937,2.727,2.61,4.83,2.61,4.83s2.551,1.833,6.422,1.934c0.813,0.022,2.597,0.24,5.348-0.237
			c-0.028-0.048-0.287-0.494-0.604-1.228c-0.077-0.179-0.2-0.586-0.231-0.64c0.08-0.015,3.09-0.569,6.173-1.994
			c3.865-1.79,5.941-3.655,5.941-3.655s0.119,0.271,0.313,0.784c0.196,0.511,0.407,1.146,0.407,1.146s-2.356,2.164-5.292,3.457
			c-3.652,1.609-6.494,2.104-6.683,2.136c0.073,0.135,0.15,0.272,0.233,0.413c0.506,0.865,0.942,1.488,1.277,1.925
			c-0.573,0.118-1.166,0.222-1.779,0.304c-4.581,0.615-7.85-0.896-7.85-0.896s4.566,3.057,9.728,2.732
			c4.626-0.289,8.197-2.742,8.351-2.841c0.083-0.053,0.406-0.306,0.406-0.306s0.038-0.295-0.008-1.189
			c-0.006-0.127-0.015-0.24-0.027-0.35c2.12-1.475,3.966-3.471,4.78-5.016C33.731,19.76,34.403,15.889,33.781,12.832"/>
		<path clip-path="url(#SVGID_2_)" fill="#FFFFFF" d="M18.964,2.187c0,0,1.251-0.1,1.806-0.115c1.482-0.041,2.685,0.078,2.685,0.078
			s-0.361-0.724-2.087-1.443c-0.937-0.392-2.456-0.686-3.632-0.705c-1.212-0.019-3.381,0.231-5.475,1.089
			c-1.174,0.482-1.79,0.833-1.79,0.833s0.222-0.114,0.585-0.239c0.362-0.125,1.144-0.443,3-0.722
			C17.701,0.414,18.964,2.187,18.964,2.187"/>
	</g>
	<path fill="#FFFFFF" d="M46.9,12.723c-0.812,0-1.593,0.156-2.217,0.469v12.023c0.5,0.218,1.249,0.312,1.936,0.312
		c2.967,0,4.216-2.592,4.216-6.527C50.835,15.034,49.461,12.723,46.9,12.723 M46.432,27.901c-2.248,0-4.278-0.5-5.527-1.219V3.042
		h3.778v8.088c0.906-0.437,2.03-0.655,3.186-0.655c4.091,0,6.745,3.185,6.745,8.213C54.614,24.34,51.71,27.901,46.432,27.901"/>
	<path fill="#FFFFFF" d="M64.545,12.661c-2.404,0-3.623,2.28-3.623,5.591v0.343l6.934-1.093
		C67.825,14.44,66.826,12.661,64.545,12.661 M61.142,20.531c0.281,2.936,1.936,4.685,4.716,4.685c1.53,0,3.185-0.437,4.153-0.968
		l0.906,2.436c-1.374,0.717-3.466,1.219-5.59,1.219c-5.09,0-7.901-3.529-7.901-8.808c0-5.277,2.686-8.712,7.245-8.712
		c4.372,0,6.839,2.873,6.839,8.119V19L61.142,20.531z"/>
	<path fill="#FFFFFF" d="M84.439,27.557V16.034c0-2.186-0.874-3.249-3.217-3.249c-0.937,0-1.749,0.125-2.467,0.438v14.334h-3.81
		V11.63c1.749-0.75,3.935-1.218,6.277-1.218c4.904,0,7.027,2.062,7.027,5.652v11.493H84.439z"/>
	<path fill="#FFFFFF" d="M92.434,10.725h3.811v16.833h-3.811V10.725z M94.339,7.852c-1.156,0-2.124-0.843-2.124-1.905
		s0.968-1.936,2.124-1.936c1.155,0,2.124,0.874,2.124,1.936S95.495,7.852,94.339,7.852"/>
	<path fill="#FFFFFF" d="M105.208,13.129v14.428h-3.811V13.129h-1.874v-2.405h1.874v-2.06c0-3.498,2.029-5.653,5.622-5.653
		c0.437,0,0.655,0.031,0.937,0.062v2.406h-0.312c-1.719,0-2.436,1.155-2.436,3.091v2.154h2.748v2.405H105.208z"/>
	<path fill="#FFFFFF" d="M116.793,34.271h-4.029l2.811-6.713l-5.652-16.833h4.092l2.935,11.117c0.188,0.75,0.312,1.531,0.375,2.375
		h0.062c0.095-0.781,0.25-1.593,0.47-2.375l3.123-11.117h3.622L116.793,34.271z"/>
</g>
</svg>
