<?xml version="1.0" encoding="utf-8"?>
<!-- Generator: Adobe Illustrator 15.0.0, SVG Export Plug-In . SVG Version: 6.00 Build 0)  -->
<!DOCTYPE svg PUBLIC "-//W3C//DTD SVG 1.1//EN" "http://www.w3.org/Graphics/SVG/1.1/DTD/svg11.dtd">
<svg version="1.1" id="Layer_1" xmlns="http://www.w3.org/2000/svg" xmlns:xlink="http://www.w3.org/1999/xlink" x="0px" y="0px"
	 width="147px" height="35px" viewBox="0 0 147 35" enable-background="new 0 0 147 35" xml:space="preserve">
<g>
	<defs>
		<rect id="SVGID_1_" x="3.185" y="3.545" width="139.823" height="27.109"/>
	</defs>
	<clipPath id="SVGID_2_">
		<use xlink:href="#SVGID_1_"  overflow="visible"/>
	</clipPath>
	<path clip-path="url(#SVGID_2_)" fill="#FFFFFF" d="M53.369,11.952c-0.734-0.636-2.177-1.174-3.473-1.174
		c-2.421,0-3.277,1.248-3.693,1.908h-0.049v-1.443h-3.791v13.574h4.06v-7.386c0-0.832,0-2.837,2.324-2.837
		c2.127,0,2.127,1.858,2.127,2.812v7.411h4.06V16.33C54.934,13.664,54.103,12.588,53.369,11.952"/>
	<path clip-path="url(#SVGID_2_)" fill="#FFFFFF" d="M132.795,16.516c0.172-0.807,0.979-2.323,3.082-2.323s2.91,1.516,3.081,2.323
		H132.795z M143.02,18.178c0-4.132-3.033-7.409-7.168-7.409c-4.132,0-7.115,3.497-7.115,7.288c0,4.035,3.302,7.189,7.189,7.189
		c1.395,0,2.739-0.416,3.864-1.222c1.149-0.782,2.104-1.957,2.764-3.474h-4.157c-0.563,0.709-1.224,1.271-2.471,1.271
		c-1.59,0-2.936-0.953-3.179-2.568h10.174C142.97,18.937,143.02,18.717,143.02,18.178"/>
</g>
<path fill="#FFFFFF" d="M125.926,11.945c-0.734-0.637-2.179-1.175-3.476-1.175c-2.425,0-3.281,1.248-3.698,1.909h-0.049v-1.426
	h-3.795v13.571h4.064V17.43c0-0.832,0-2.84,2.326-2.84c2.131,0,2.131,1.861,2.131,2.816v7.418h4.063v-8.496
	C127.493,13.66,126.661,12.583,125.926,11.945"/>
<polygon fill="#FFFFFF" points="97.076,7.73 93.016,10.073 93.016,11.243 91.011,11.243 91.011,14.324 93.016,14.324 93.016,24.816 
	97.076,24.816 97.076,14.324 99.033,14.324 99.033,11.243 97.076,11.243 "/>
<path fill="#FFFFFF" d="M85.682,16.389c-1.073-0.317-2.074-0.732-2.074-1.464c0-0.366,0.293-0.903,1.146-0.903
	c1.197,0,1.244,0.732,1.27,1.025H90c-0.342-3.562-3.416-4.269-5.196-4.269c-2.806,0-5.246,1.781-5.246,4.465
	c0,1.829,1.464,2.976,3.221,3.537c2.586,1,3.586,1.122,3.586,2.171c0,0.659-0.731,1.049-1.415,1.049c-0.17,0-1.365,0-1.537-1.244
	h-4.024c0.366,3.562,3.464,4.49,5.514,4.49c3,0,5.513-1.757,5.513-4.611C90.414,17.707,87.975,17.023,85.682,16.389"/>
<path fill="#FFFFFF" d="M106.361,21.438c-1.764,0-3.256-1.445-3.256-3.429c0-1.984,1.492-3.429,3.256-3.429s3.257,1.445,3.257,3.429
	C109.618,19.992,108.125,21.438,106.361,21.438 M106.361,10.785c-4.947,0-7.322,3.894-7.322,7.224s2.375,7.224,7.322,7.224
	c4.945,0,7.32-3.894,7.32-7.224S111.307,10.785,106.361,10.785"/>
<path fill="#FFFFFF" d="M60.224,16.516c0.171-0.807,0.978-2.323,3.081-2.323s2.911,1.516,3.082,2.323H60.224z M70.447,18.178
	c0-4.132-3.033-7.409-7.167-7.409s-7.117,3.497-7.117,7.288c0,4.035,3.302,7.189,7.19,7.189c1.394,0,2.739-0.416,3.864-1.222
	c1.149-0.782,2.104-1.957,2.764-3.474h-4.158c-0.562,0.709-1.222,1.271-2.47,1.271c-1.59,0-2.935-0.953-3.179-2.568h10.174
	C70.397,18.937,70.447,18.717,70.447,18.178"/>
<path fill="#FFFFFF" d="M25.34,21.441c-1.761,0-3.253-1.443-3.253-3.424c0-1.981,1.492-3.424,3.253-3.424
	c1.761,0,3.252,1.443,3.252,3.424C28.592,19.998,27.101,21.441,25.34,21.441 M25.34,10.802c-2.172,0-3.847,0.752-5.043,1.877V3.544
	L3.184,13.443v17.212l10.058-5.817c-2.983-0.894-5.069-3.627-5.069-6.895c0-3.954,3.082-7.156,7.108-7.156
	c1.961,0,3.715,0.712,5.016,1.901c1.064,0.973,1.825,2.266,2.142,3.751h-2.142h-1.934c-0.461-0.922-1.262-1.892-2.936-1.892
	c-1.916-0.097-3.202,1.48-3.202,3.421c0,1.964,1.286,3.42,3.202,3.42c1.674,0,2.475-0.971,2.912-1.795h1.958h2.142
	c-0.339,1.424-1.104,2.726-2.193,3.711c1.199,1.152,2.89,1.928,5.094,1.928c4.94,0,7.312-3.889,7.312-7.215
	S30.28,10.802,25.34,10.802"/>
<path fill="#FFFFFF" d="M37.731,12.686h-0.049v-1.443h-3.815v13.574h4.06v-7.459c0-2.054,1.319-2.445,3.203-2.494v-4.085
	C38.783,10.778,38.073,12.026,37.731,12.686"/>
<path fill="#FFFFFF" d="M75.73,12.686h-0.049v-1.443h-3.815v13.574h4.06v-7.459c0-2.054,1.319-2.445,3.203-2.494v-4.085
	C76.783,10.778,76.072,12.026,75.73,12.686"/>
</svg>
