<?xml version="1.0" encoding="utf-8"?>
<!-- Generator: Adobe Illustrator 15.0.0, SVG Export Plug-In . SVG Version: 6.00 Build 0)  -->
<!DOCTYPE svg PUBLIC "-//W3C//DTD SVG 1.1//EN" "http://www.w3.org/Graphics/SVG/1.1/DTD/svg11.dtd">
<svg version="1.1" id="Layer_1" xmlns="http://www.w3.org/2000/svg" xmlns:xlink="http://www.w3.org/1999/xlink" x="0px" y="0px"
	 width="78px" height="34px" viewBox="0 0 78 34" enable-background="new 0 0 78 34" xml:space="preserve">
<path fill="#FFFFFF" d="M72.051,28.743c0-0.678,0.551-1.231,1.232-1.231c0.679,0,1.227,0.554,1.227,1.231
	c0,0.685-0.548,1.238-1.227,1.238C72.602,29.981,72.051,29.428,72.051,28.743 M74.314,28.743c0-0.601-0.435-1.069-1.031-1.069
	c-0.6,0-1.037,0.469-1.037,1.069c0,0.606,0.438,1.075,1.037,1.075C73.88,29.818,74.314,29.35,74.314,28.743 M73.896,29.434h-0.201
	l-0.393-0.635h-0.308v0.635h-0.168v-1.377h0.599c0.363,0,0.487,0.136,0.487,0.363c0,0.271-0.188,0.371-0.433,0.379L73.896,29.434z
	 M73.251,28.665c0.194,0,0.479,0.032,0.479-0.247c0-0.216-0.175-0.242-0.344-0.242h-0.392v0.489H73.251z"/>
<rect x="3.084" y="3.394" fill="#FFFFFF" width="12.97" height="1.646"/>
<rect x="3.084" y="6.945" fill="#FFFFFF" width="12.97" height="1.646"/>
<rect x="3.084" y="24.7" fill="#FFFFFF" width="12.97" height="1.646"/>
<rect x="6.79" y="21.148" fill="#FFFFFF" width="5.559" height="1.646"/>
<rect x="6.79" y="17.598" fill="#FFFFFF" width="5.559" height="1.646"/>
<rect x="6.79" y="14.047" fill="#FFFFFF" width="5.559" height="1.646"/>
<rect x="6.79" y="10.496" fill="#FFFFFF" width="5.559" height="1.646"/>
<rect x="3.084" y="28.251" fill="#FFFFFF" width="12.97" height="1.646"/>
<rect x="44.117" y="21.148" fill="#FFFFFF" width="5.573" height="1.646"/>
<polygon fill="#FFFFFF" points="52.601,22.795 57.925,22.795 58.495,21.148 52.031,21.148 "/>
<rect x="44.117" y="17.598" fill="#FFFFFF" width="5.573" height="1.646"/>
<polygon fill="#FFFFFF" points="51.383,19.244 59.144,19.244 59.713,17.598 50.812,17.598 "/>
<polygon fill="#FFFFFF" points="54.494,14.047 44.117,14.047 44.117,15.693 49.69,15.693 49.69,14.332 50.161,15.693 55.055,15.693 
	"/>
<polygon fill="#FFFFFF" points="56.031,14.047 55.47,15.693 60.359,15.693 60.835,14.318 60.835,15.693 66.407,15.693 
	66.407,14.047 "/>
<polygon fill="#FFFFFF" points="53.295,10.496 44.117,10.496 44.117,12.143 53.856,12.143 "/>
<rect x="60.835" y="21.148" fill="#FFFFFF" width="5.573" height="1.646"/>
<rect x="60.835" y="17.598" fill="#FFFFFF" width="5.573" height="1.646"/>
<polygon fill="#FFFFFF" points="57.23,10.496 56.668,12.143 66.407,12.143 66.407,10.496 "/>
<rect x="60.834" y="28.251" fill="#FFFFFF" width="9.288" height="1.646"/>
<rect x="40.402" y="28.251" fill="#FFFFFF" width="9.288" height="1.646"/>
<polygon fill="#FFFFFF" points="55.037,29.896 55.488,29.896 56.059,28.251 54.468,28.251 "/>
<rect x="60.834" y="24.7" fill="#FFFFFF" width="9.288" height="1.646"/>
<rect x="40.402" y="24.7" fill="#FFFFFF" width="9.288" height="1.646"/>
<polygon fill="#FFFFFF" points="53.818,26.346 56.707,26.346 57.276,24.7 53.249,24.7 "/>
<polygon fill="#FFFFFF" points="59.628,3.394 59.066,5.04 70.123,5.04 70.123,3.394 "/>
<polygon fill="#FFFFFF" points="50.897,3.394 40.402,3.394 40.402,5.04 51.458,5.04 "/>
<polygon fill="#FFFFFF" points="58.43,6.945 57.867,8.591 70.123,8.591 70.123,6.945 "/>
<polygon fill="#FFFFFF" points="52.097,6.945 40.402,6.945 40.402,8.591 52.657,8.591 "/>
<rect x="21.723" y="10.496" fill="#FFFFFF" width="5.573" height="1.646"/>
<rect x="21.723" y="21.148" fill="#FFFFFF" width="5.573" height="1.646"/>
<path fill="#FFFFFF" d="M18.008,5.04H36.29c-1.651-1.352-4.104-1.646-6.66-1.646h-0.502h-11.12V5.04z"/>
<path fill="#FFFFFF" d="M18.008,6.945H37.85c0.198,0.32,0.545,1.069,0.66,1.646H18.008V6.945z"/>
<path fill="#FFFFFF" d="M21.723,17.598h14.194c0.525,0.33,1.279,1.073,1.669,1.646H21.723V17.598z"/>
<path fill="#FFFFFF" d="M32.868,10.496h5.869c0.002,0.611-0.14,1.253-0.268,1.646h-5.602V10.496z"/>
<path fill="#FFFFFF" d="M32.868,21.148h5.627c0.153,0.365,0.275,0.976,0.289,1.646h-5.916V21.148z"/>
<path fill="#FFFFFF" d="M18.008,24.699h20.615c-0.073,0.422-0.489,1.408-0.669,1.646H18.008V24.699z"/>
<path fill="#FFFFFF" d="M18.008,28.25h18.303c-1.612,1.275-3.82,1.646-6.377,1.646h-0.806h-11.12V28.25z"/>
<path fill="#FFFFFF" d="M21.723,15.693H35.93c0.627-0.452,1.172-1.009,1.634-1.646H21.723V15.693z"/>
</svg>
