<?xml version="1.0" encoding="utf-8"?>
<!-- Generator: Adobe Illustrator 15.0.0, SVG Export Plug-In . SVG Version: 6.00 Build 0)  -->
<!DOCTYPE svg PUBLIC "-//W3C//DTD SVG 1.1//EN" "http://www.w3.org/Graphics/SVG/1.1/DTD/svg11.dtd">
<svg version="1.1" id="Layer_1" xmlns="http://www.w3.org/2000/svg" xmlns:xlink="http://www.w3.org/1999/xlink" x="0px" y="0px"
	 width="240.232px" height="39.501px" viewBox="0 0 240.232 39.501" enable-background="new 0 0 240.232 39.501"
	 xml:space="preserve">
<g>
	<polygon fill="#FFFFFF" points="120.001,20.753 120.001,12.948 112.692,12.948 112.692,20.753 106.514,20.753 106.514,0.335 
		112.692,0.335 112.692,7.56 120.001,7.56 120.001,0.335 126.181,0.335 126.181,20.753 	"/>
	<polygon fill="#FFFFFF" points="50.814,20.752 50.814,5.724 45.335,5.724 45.335,0.336 62.445,0.336 62.445,5.724 56.997,5.724 
		56.997,20.752 	"/>
	<polygon fill="#FFFFFF" points="65.412,20.752 65.412,0.336 80.899,0.336 80.899,5.724 71.595,5.724 71.595,7.743 80.685,7.743 
		80.685,13.131 71.595,13.131 71.595,15.365 80.899,15.365 80.899,20.752 	"/>
	<path fill="#FFFFFF" d="M83.315,10.56C83.315,4.254,88.151,0,94.548,0c5.357,0,8.05,3.123,9.274,5.938l-5.325,2.479
		c-0.52-1.591-2.112-2.969-3.949-2.969c-2.969,0-4.959,2.266-4.959,5.112c0,2.846,1.99,5.112,4.959,5.112
		c1.837,0,3.429-1.378,3.949-2.969l5.325,2.449c-1.193,2.723-3.917,5.968-9.274,5.968C88.151,21.12,83.315,16.835,83.315,10.56"/>
	<path fill="#FFFFFF" d="M155.914,10.56c0-6.275,4.867-10.56,11.172-10.56s11.172,4.285,11.172,10.56
		c0,6.275-4.867,10.56-11.172,10.56S155.914,16.835,155.914,10.56 M171.982,10.56c0-2.846-1.928-5.112-4.896-5.112
		s-4.896,2.266-4.896,5.112c0,2.846,1.928,5.112,4.896,5.112S171.982,13.406,171.982,10.56"/>
	<path fill="#FFFFFF" d="M192.457,20.752l-2.816-6.428h-2.234v6.428h-6.183V0.337h10.897c4.775,0,7.345,3.183,7.345,7.009
		c0,3.52-2.05,5.387-3.672,6.183l3.702,7.224H192.457z M193.191,7.315c0-1.103-0.979-1.592-2.02-1.592h-3.766v3.214h3.766
		C192.213,8.938,193.191,8.448,193.191,7.315"/>
	<polygon fill="#FFFFFF" points="202.739,20.752 202.739,0.336 208.922,0.336 208.922,15.365 216.666,15.365 216.666,20.752 	"/>
	<path fill="#FFFFFF" d="M219.908,20.752V0.337h9.121c6.428,0,11.203,3.672,11.203,10.192c0,6.52-4.775,10.223-11.172,10.223
		H219.908z M233.957,10.529c0-2.755-1.592-4.805-4.896-4.805h-2.969v9.641h2.938C232.121,15.365,233.957,13.1,233.957,10.529"/>
	<path fill="#FFFFFF" d="M41.552,18.565l-1.123-2.19h0.44l-0.546-1.066h-0.22l-0.845-1.648c1.639-0.804,3.711-2.691,3.711-6.249
		c0-3.868-2.597-7.086-7.425-7.086H24.529v14.983h-0.275v1.066h0.601v2.19h-0.326v2.192h6.25v-2.108h0.006v-2.33h-0.896v-0.994
		h0.649v-0.859h2.5l0.375,0.859h0.01l0.426,0.972h-0.001l1.021,2.33h0.082l0.933,2.13H43l-1.123-2.192H41.552z M30.779,9.02V5.772
		h3.807c1.051,0,2.041,0.495,2.041,1.608c0,1.145-0.99,1.64-2.041,1.64H30.779z"/>
	<polygon fill="#FFFFFF" points="20.807,15.325 21.187,15.325 21.187,0.326 14.937,0.326 14.937,7.629 7.542,7.629 7.542,0.326 
		1.292,0.326 1.292,15.309 0.289,15.309 0.289,16.375 2.396,16.375 2.396,18.566 1.292,18.566 1.292,20.757 7.542,20.757 
		7.542,18.628 8.432,18.628 8.432,16.297 6.735,16.297 6.735,15.325 7.542,15.325 7.542,13.074 14.937,13.074 14.937,15.309 
		14.361,15.309 14.361,16.375 15.57,16.375 15.57,18.566 14.937,18.566 14.937,20.757 21.187,20.757 21.187,18.628 21.604,18.628 
		21.604,16.297 20.807,16.297 	"/>
	<polyline fill="#009ED8" points="141.715,10.567 144.807,20.756 138.623,20.756 	"/>
	<polyline fill="#8FC200" points="135.48,10.523 132.389,0.335 138.572,0.335 	"/>
	<polyline fill="#DE0F42" points="147.949,10.523 144.857,0.335 151.04,0.335 	"/>
	<text transform="matrix(1 0 0 1 0 39.3335)"><tspan x="0" y="0" fill="#99CC00" font-family="'MuseoSans-500'" font-size="14.0266">L</tspan><tspan x="6.382" y="0" fill="#99CC00" font-family="'MuseoSans-500'" font-size="14.0266">ONDON </tspan></text>
	<path fill="#FFFFFF" d="M66.191,38.576c0-3.533,4.852-4.038,4.852-6.365c0-0.982-0.743-1.641-1.781-1.641
		c-1.304,0-2.005,1.262-2.005,1.262l-1.023-0.688c0,0,0.897-1.879,3.127-1.879c1.823,0,3.127,1.136,3.127,2.847
		c0,3.253-4.726,3.758-4.753,6.016h4.908v1.206h-6.38C66.22,39.067,66.191,38.814,66.191,38.576z M74.229,38.127h2.188v-6.395
		c0-0.308,0.014-0.616,0.014-0.616h-0.028c0,0-0.112,0.224-0.477,0.574L75,32.603l-0.841-0.87l2.37-2.299h1.234v8.694h2.16v1.206
		h-5.693V38.127z M81.831,33.851h4.095v1.205h-4.095V33.851z M88.228,38.576c0-3.533,4.852-4.038,4.852-6.365
		c0-0.982-0.743-1.641-1.781-1.641c-1.304,0-2.005,1.262-2.005,1.262l-1.023-0.688c0,0,0.897-1.879,3.127-1.879
		c1.823,0,3.127,1.136,3.127,2.847c0,3.253-4.726,3.758-4.753,6.016h4.908v1.206h-6.38C88.255,39.067,88.228,38.814,88.228,38.576z
		 M96.25,38.576c0-3.533,4.852-4.038,4.852-6.365c0-0.982-0.743-1.641-1.781-1.641c-1.304,0-2.005,1.262-2.005,1.262l-1.023-0.688
		c0,0,0.897-1.879,3.127-1.879c1.823,0,3.127,1.136,3.127,2.847c0,3.253-4.726,3.758-4.753,6.016h4.908v1.206h-6.38
		C96.279,39.067,96.25,38.814,96.25,38.576z M108.945,29.434h1.458l2.272,5.357c0.224,0.547,0.491,1.332,0.491,1.332h0.028
		c0,0,0.267-0.785,0.491-1.332l2.271-5.357h1.458l0.799,9.9h-1.375l-0.491-6.24c-0.042-0.604-0.014-1.459-0.014-1.459h-0.028
		c0,0-0.294,0.912-0.533,1.459l-1.978,4.459h-1.234l-1.963-4.459c-0.224-0.533-0.533-1.486-0.533-1.486h-0.028
		c0,0,0.014,0.883-0.028,1.486l-0.477,6.24h-1.388L108.945,29.434z M125.509,36.487h-3.73l-0.981,2.847h-1.431l3.562-9.9h1.458
		l3.562,9.9h-1.444L125.509,36.487z M123.644,30.793c0,0-0.224,0.897-0.393,1.402l-1.107,3.142h3l-1.094-3.142
		c-0.168-0.505-0.378-1.402-0.378-1.402H123.644z M129.41,29.434h3.029c1.038,0,1.473,0.083,1.851,0.224
		c1.009,0.379,1.669,1.374,1.669,2.678c0,1.263-0.701,2.328-1.782,2.68v0.027c0,0,0.112,0.127,0.294,0.449l2.104,3.842h-1.57
		l-2.089-3.94h-2.118v3.94h-1.388V29.434z M132.789,34.187c1.08,0,1.753-0.688,1.753-1.795c0-0.729-0.28-1.248-0.785-1.528
		c-0.267-0.14-0.589-0.225-1.36-0.225h-1.599v3.548H132.789z M142.762,29.265c2.384,0,3.604,1.305,3.604,1.305l-0.687,1.037
		c0,0-1.149-1.08-2.86-1.08c-2.216,0-3.66,1.684-3.66,3.787c0,2.117,1.473,3.912,3.674,3.912c1.865,0,3.057-1.291,3.057-1.291
		l0.744,0.996c0,0-1.361,1.57-3.843,1.57c-2.974,0-5.062-2.271-5.062-5.174C137.728,31.453,139.887,29.265,142.762,29.265z
		 M148.527,29.434h1.389v4.347h5.133v-4.347h1.389v9.9h-1.389v-4.348h-5.133v4.348h-1.389V29.434z M162.162,38.576
		c0-3.533,4.852-4.038,4.852-6.365c0-0.982-0.743-1.641-1.781-1.641c-1.304,0-2.005,1.262-2.005,1.262l-1.023-0.688
		c0,0,0.897-1.879,3.127-1.879c1.823,0,3.127,1.136,3.127,2.847c0,3.253-4.726,3.758-4.753,6.016h4.907v1.206h-6.38
		C162.189,39.067,162.162,38.814,162.162,38.576z M170.297,34.37c0-2.847,0.855-5.104,3.492-5.104c2.65,0,3.506,2.258,3.506,5.104
		c0,2.86-0.855,5.132-3.506,5.132C171.152,39.501,170.297,37.23,170.297,34.37z M175.879,34.37c0-2.146-0.463-3.829-2.09-3.829
		c-1.612,0-2.075,1.684-2.075,3.829c0,2.159,0.463,3.856,2.075,3.856C175.416,38.226,175.879,36.529,175.879,34.37z M178.966,38.127
		h2.188v-6.395c0-0.308,0.015-0.616,0.015-0.616h-0.028c0,0-0.112,0.224-0.478,0.574l-0.925,0.912l-0.841-0.87l2.369-2.299h1.234
		v8.694h2.159v1.206h-5.693V38.127z M190.102,31.537c0.281-0.561,0.575-0.911,0.575-0.911v-0.028c0,0-0.224,0.042-0.729,0.042
		h-4.417v-1.206h6.619v0.953l-4.474,8.947h-1.43L190.102,31.537z"/>
	<polygon fill="#FFFFFF" points="120.001,20.753 120.001,12.948 112.692,12.948 112.692,20.753 106.514,20.753 106.514,0.335 
		112.692,0.335 112.692,7.56 120.001,7.56 120.001,0.335 126.181,0.335 126.181,20.753 	"/>
	<polygon fill="#FFFFFF" points="50.814,20.752 50.814,5.724 45.335,5.724 45.335,0.336 62.445,0.336 62.445,5.724 56.997,5.724 
		56.997,20.752 	"/>
	<polygon fill="#FFFFFF" points="65.412,20.752 65.412,0.336 80.899,0.336 80.899,5.724 71.595,5.724 71.595,7.743 80.685,7.743 
		80.685,13.131 71.595,13.131 71.595,15.365 80.899,15.365 80.899,20.752 	"/>
	<path fill="#FFFFFF" d="M83.315,10.56C83.315,4.254,88.151,0,94.548,0c5.357,0,8.05,3.123,9.274,5.938l-5.325,2.479
		c-0.52-1.591-2.112-2.969-3.949-2.969c-2.969,0-4.959,2.266-4.959,5.112c0,2.846,1.99,5.112,4.959,5.112
		c1.837,0,3.429-1.378,3.949-2.969l5.325,2.449c-1.193,2.723-3.917,5.968-9.274,5.968C88.151,21.12,83.315,16.835,83.315,10.56"/>
	<path fill="#FFFFFF" d="M155.914,10.56c0-6.275,4.867-10.56,11.172-10.56s11.172,4.285,11.172,10.56
		c0,6.275-4.867,10.56-11.172,10.56S155.914,16.835,155.914,10.56 M171.982,10.56c0-2.846-1.928-5.112-4.896-5.112
		s-4.896,2.266-4.896,5.112c0,2.846,1.928,5.112,4.896,5.112S171.982,13.406,171.982,10.56"/>
	<path fill="#FFFFFF" d="M192.457,20.752l-2.816-6.428h-2.234v6.428h-6.183V0.337h10.897c4.775,0,7.345,3.183,7.345,7.009
		c0,3.52-2.05,5.387-3.672,6.183l3.702,7.224H192.457z M193.191,7.315c0-1.103-0.979-1.592-2.02-1.592h-3.766v3.214h3.766
		C192.213,8.938,193.191,8.448,193.191,7.315"/>
	<polygon fill="#FFFFFF" points="202.739,20.752 202.739,0.336 208.922,0.336 208.922,15.365 216.666,15.365 216.666,20.752 	"/>
	<path fill="#FFFFFF" d="M219.908,20.752V0.337h9.121c6.428,0,11.203,3.672,11.203,10.192c0,6.52-4.775,10.223-11.172,10.223
		H219.908z M233.957,10.529c0-2.755-1.592-4.805-4.896-4.805h-2.969v9.641h2.938C232.121,15.365,233.957,13.1,233.957,10.529"/>
	<path fill="#FFFFFF" d="M41.552,18.565l-1.123-2.19h0.44l-0.546-1.066h-0.22l-0.845-1.648c1.639-0.804,3.711-2.691,3.711-6.249
		c0-3.868-2.597-7.086-7.425-7.086H24.529v14.983h-0.275v1.066h0.601v2.19h-0.326v2.192h6.25v-2.108h0.006v-2.33h-0.896v-0.994
		h0.649v-0.859h2.5l0.375,0.859h0.01l0.426,0.972h-0.001l1.021,2.33h0.082l0.933,2.13H43l-1.123-2.192H41.552z M30.779,9.02V5.772
		h3.807c1.051,0,2.041,0.495,2.041,1.608c0,1.145-0.99,1.64-2.041,1.64H30.779z"/>
	<polygon fill="#FFFFFF" points="20.807,15.325 21.187,15.325 21.187,0.326 14.937,0.326 14.937,7.629 7.542,7.629 7.542,0.326 
		1.292,0.326 1.292,15.309 0.289,15.309 0.289,16.375 2.396,16.375 2.396,18.566 1.292,18.566 1.292,20.757 7.542,20.757 
		7.542,18.628 8.432,18.628 8.432,16.297 6.735,16.297 6.735,15.325 7.542,15.325 7.542,13.074 14.937,13.074 14.937,15.309 
		14.361,15.309 14.361,16.375 15.57,16.375 15.57,18.566 14.937,18.566 14.937,20.757 21.187,20.757 21.187,18.628 21.604,18.628 
		21.604,16.297 20.807,16.297 	"/>
	<polyline fill="#009ED8" points="141.715,10.567 144.807,20.756 138.623,20.756 	"/>
	<polyline fill="#8FC200" points="135.48,10.523 132.389,0.335 138.572,0.335 	"/>
	<polyline fill="#DE0F42" points="147.949,10.523 144.857,0.335 151.04,0.335 	"/>
	<text transform="matrix(1 0 0 1 0 39.3335)"><tspan x="0" y="0" fill="#99CC00" font-family="'MuseoSans-500'" font-size="14.0266">L</tspan><tspan x="6.382" y="0" fill="#99CC00" font-family="'MuseoSans-500'" font-size="14.0266">ONDON </tspan></text>
	<path fill="#FFFFFF" d="M66.191,38.576c0-3.533,4.852-4.038,4.852-6.365c0-0.982-0.743-1.641-1.781-1.641
		c-1.304,0-2.005,1.262-2.005,1.262l-1.023-0.688c0,0,0.897-1.879,3.127-1.879c1.823,0,3.127,1.136,3.127,2.847
		c0,3.253-4.726,3.758-4.753,6.016h4.908v1.206h-6.38C66.22,39.067,66.191,38.814,66.191,38.576z M74.229,38.127h2.188v-6.395
		c0-0.308,0.014-0.616,0.014-0.616h-0.028c0,0-0.112,0.224-0.477,0.574L75,32.603l-0.841-0.87l2.37-2.299h1.234v8.694h2.16v1.206
		h-5.693V38.127z M81.831,33.851h4.095v1.205h-4.095V33.851z M88.228,38.576c0-3.533,4.852-4.038,4.852-6.365
		c0-0.982-0.743-1.641-1.781-1.641c-1.304,0-2.005,1.262-2.005,1.262l-1.023-0.688c0,0,0.897-1.879,3.127-1.879
		c1.823,0,3.127,1.136,3.127,2.847c0,3.253-4.726,3.758-4.753,6.016h4.908v1.206h-6.38C88.255,39.067,88.228,38.814,88.228,38.576z
		 M96.25,38.576c0-3.533,4.852-4.038,4.852-6.365c0-0.982-0.743-1.641-1.781-1.641c-1.304,0-2.005,1.262-2.005,1.262l-1.023-0.688
		c0,0,0.897-1.879,3.127-1.879c1.823,0,3.127,1.136,3.127,2.847c0,3.253-4.726,3.758-4.753,6.016h4.908v1.206h-6.38
		C96.279,39.067,96.25,38.814,96.25,38.576z M108.945,29.434h1.458l2.272,5.357c0.224,0.547,0.491,1.332,0.491,1.332h0.028
		c0,0,0.267-0.785,0.491-1.332l2.271-5.357h1.458l0.799,9.9h-1.375l-0.491-6.24c-0.042-0.604-0.014-1.459-0.014-1.459h-0.028
		c0,0-0.294,0.912-0.533,1.459l-1.978,4.459h-1.234l-1.963-4.459c-0.224-0.533-0.533-1.486-0.533-1.486h-0.028
		c0,0,0.014,0.883-0.028,1.486l-0.477,6.24h-1.388L108.945,29.434z M125.509,36.487h-3.73l-0.981,2.847h-1.431l3.562-9.9h1.458
		l3.562,9.9h-1.444L125.509,36.487z M123.644,30.793c0,0-0.224,0.897-0.393,1.402l-1.107,3.142h3l-1.094-3.142
		c-0.168-0.505-0.378-1.402-0.378-1.402H123.644z M129.41,29.434h3.029c1.038,0,1.473,0.083,1.851,0.224
		c1.009,0.379,1.669,1.374,1.669,2.678c0,1.263-0.701,2.328-1.782,2.68v0.027c0,0,0.112,0.127,0.294,0.449l2.104,3.842h-1.57
		l-2.089-3.94h-2.118v3.94h-1.388V29.434z M132.789,34.187c1.08,0,1.753-0.688,1.753-1.795c0-0.729-0.28-1.248-0.785-1.528
		c-0.267-0.14-0.589-0.225-1.36-0.225h-1.599v3.548H132.789z M142.762,29.265c2.384,0,3.604,1.305,3.604,1.305l-0.687,1.037
		c0,0-1.149-1.08-2.86-1.08c-2.216,0-3.66,1.684-3.66,3.787c0,2.117,1.473,3.912,3.674,3.912c1.865,0,3.057-1.291,3.057-1.291
		l0.744,0.996c0,0-1.361,1.57-3.843,1.57c-2.974,0-5.062-2.271-5.062-5.174C137.728,31.453,139.887,29.265,142.762,29.265z
		 M148.527,29.434h1.389v4.347h5.133v-4.347h1.389v9.9h-1.389v-4.348h-5.133v4.348h-1.389V29.434z M162.162,38.576
		c0-3.533,4.852-4.038,4.852-6.365c0-0.982-0.743-1.641-1.781-1.641c-1.304,0-2.005,1.262-2.005,1.262l-1.023-0.688
		c0,0,0.897-1.879,3.127-1.879c1.823,0,3.127,1.136,3.127,2.847c0,3.253-4.726,3.758-4.753,6.016h4.907v1.206h-6.38
		C162.189,39.067,162.162,38.814,162.162,38.576z M170.297,34.37c0-2.847,0.855-5.104,3.492-5.104c2.65,0,3.506,2.258,3.506,5.104
		c0,2.86-0.855,5.132-3.506,5.132C171.152,39.501,170.297,37.23,170.297,34.37z M175.879,34.37c0-2.146-0.463-3.829-2.09-3.829
		c-1.612,0-2.075,1.684-2.075,3.829c0,2.159,0.463,3.856,2.075,3.856C175.416,38.226,175.879,36.529,175.879,34.37z M178.966,38.127
		h2.188v-6.395c0-0.308,0.015-0.616,0.015-0.616h-0.028c0,0-0.112,0.224-0.478,0.574l-0.925,0.912l-0.841-0.87l2.369-2.299h1.234
		v8.694h2.159v1.206h-5.693V38.127z M190.102,31.537c0.281-0.561,0.575-0.911,0.575-0.911v-0.028c0,0-0.224,0.042-0.729,0.042
		h-4.417v-1.206h6.619v0.953l-4.474,8.947h-1.43L190.102,31.537z"/>
</g>
</svg>
