<?xml version="1.0" encoding="utf-8"?>
<!-- Generator: Adobe Illustrator 15.0.0, SVG Export Plug-In . SVG Version: 6.00 Build 0)  -->
<!DOCTYPE svg PUBLIC "-//W3C//DTD SVG 1.1//EN" "http://www.w3.org/Graphics/SVG/1.1/DTD/svg11.dtd">
<svg version="1.1" id="Layer_1" xmlns="http://www.w3.org/2000/svg" xmlns:xlink="http://www.w3.org/1999/xlink" x="0px" y="0px"
	 width="109px" height="20px" viewBox="0 0 109 20" enable-background="new 0 0 109 20" xml:space="preserve">
<path fill="#FFFFFF" d="M46.545,11.953h6.64l-3.506-5.655l-6.438,10.22l-2.935,0.002l7.836-12.269
	c0.334-0.501,0.906-0.799,1.533-0.799c0.617,0,1.181,0.291,1.514,0.776l7.867,12.292l-2.937-0.002l-1.38-2.283h-6.726L46.545,11.953
	z M77.009,14.236V3.576h-2.492v11.703c0,0.324,0.133,0.633,0.362,0.863c0.242,0.24,0.567,0.375,0.911,0.375h11.35l1.463-2.281
	H77.009z M35.845,12.329c2.416,0,4.372-1.959,4.372-4.375c0-2.414-1.956-4.378-4.372-4.378H24.953v12.941h2.49V5.861h8.229
	c1.16,0,2.094,0.934,2.094,2.093c0,1.155-0.934,2.094-2.094,2.094l-7.011-0.004l7.425,6.474h3.616l-4.999-4.192L35.845,12.329z
	 M9.641,16.518c-3.572,0-6.468-2.894-6.468-6.47c0-3.57,2.896-6.472,6.468-6.472h7.521c3.573,0,6.471,2.902,6.471,6.472
	c0,3.576-2.897,6.472-6.471,6.472L9.641,16.518z M16.993,14.238c2.315,0,4.192-1.875,4.192-4.19c0-2.313-1.877-4.187-4.192-4.187
	H9.811c-2.313,0-4.191,1.874-4.191,4.187c0,2.315,1.878,4.19,4.191,4.19H16.993z M64.245,16.518c-3.57,0-6.472-2.894-6.472-6.47
	c0-3.57,2.901-6.472,6.472-6.472h8.938l-1.466,2.285h-7.302c-2.316,0-4.193,1.874-4.193,4.187c0,2.315,1.877,4.19,4.193,4.19h8.969
	l-1.46,2.279H64.245z M94.683,14.238c-1.917,0-3.536-1.288-4.031-3.045h10.634l1.469-2.28H90.648
	c0.497-1.763,2.115-3.052,4.034-3.052h7.298l1.466-2.285h-8.936c-3.571,0-6.47,2.902-6.47,6.472c0,3.576,2.898,6.47,6.47,6.47h7.675
	l1.465-2.279H94.683z"/>
<path fill="#FFFFFF" d="M103.893,5.846c0-0.634,0.512-1.143,1.145-1.143s1.139,0.509,1.139,1.143c0,0.631-0.506,1.141-1.139,1.141
	S103.893,6.477,103.893,5.846 M105.037,7.304c0.804,0,1.456-0.653,1.456-1.455c0-0.805-0.652-1.453-1.456-1.453
	s-1.455,0.648-1.455,1.453C103.582,6.651,104.233,7.304,105.037,7.304 M104.899,4.986c0.225,0,0.315,0.001,0.427,0.042
	c0.289,0.098,0.314,0.362,0.314,0.458c0,0.02-0.003,0.074-0.015,0.135c-0.019,0.061-0.051,0.185-0.203,0.28
	c-0.017,0.01-0.03,0.019-0.075,0.038l0.381,0.676h-0.366l-0.331-0.623h-0.219v0.623h-0.323V4.986H104.899z M105.013,5.722
	c0.098-0.003,0.208-0.01,0.271-0.101c0.027-0.041,0.037-0.084,0.037-0.14c0-0.088-0.046-0.158-0.12-0.198
	c-0.076-0.028-0.149-0.028-0.301-0.028h-0.087v0.467H105.013z"/>
</svg>
