<?xml version="1.0" encoding="utf-8"?>
<!-- Generator: Adobe Illustrator 15.0.0, SVG Export Plug-In . SVG Version: 6.00 Build 0)  -->
<!DOCTYPE svg PUBLIC "-//W3C//DTD SVG 1.1//EN" "http://www.w3.org/Graphics/SVG/1.1/DTD/svg11.dtd">
<svg version="1.1" id="Layer_1" xmlns="http://www.w3.org/2000/svg" xmlns:xlink="http://www.w3.org/1999/xlink" x="0px" y="0px"
	 width="65px" height="34px" viewBox="0 0 65 34" enable-background="new 0 0 65 34" xml:space="preserve">
<path fill-rule="evenodd" clip-rule="evenodd" fill="#FFFFFF" d="M24.491,13.757l-1.797,5.672c0.535,0.202,1.155,0.317,1.816,0.317
	c0.645,0,1.25-0.112,1.781-0.301l-1.767-5.688H24.491z M37.953,11.917h-1.25v4.571h1.25c1.666,0,2.995-0.555,2.995-2.316
	C40.948,12.471,39.619,11.917,37.953,11.917 M38.535,20.388h-1.832v5.444h-8.402l-0.834-2.604c-0.888,0.291-1.891,0.453-2.956,0.453
	c-1.093,0-2.123-0.17-3.027-0.48l-0.865,2.631h-5.152l0.569-1.52c-0.068,0.061-0.134,0.121-0.209,0.18
	c-1.283,1.033-2.889,1.601-4.88,1.636l-0.294,0.004c-2.287,0-4.528-0.632-6.421-1.709l1.752-3.479
	c1.897,1.121,3.089,1.373,4.695,1.34c0.833-0.016,1.437-0.168,1.828-0.572c0.236-0.25,0.362-0.557,0.374-0.887
	c0.016-0.904-1.27-1.328-2.846-1.815c-1.276-0.396-2.724-0.935-3.856-1.765C4.838,16.26,4.2,15.025,4.231,13.285
	c0.02-1.265,0.487-2.408,1.356-3.309c1.247-1.289,3.26-2.071,5.673-2.071h0.014c2.069,0.002,4.596,0.59,6.425,1.521l-1.971,3.431
	c-2.004-0.966-3.01-1.058-4.151-1.119c-1.698-0.091-2.555,0.517-2.568,1.172c-0.015,0.798,1.606,1.52,3.134,2.01
	c2.315,0.736,5.258,1.719,5.707,4.562l4.23-11.278h4.913l4.955,13.485V8.204l5.672,0.003c5.42,0,7.966,1.933,7.966,6.144
	C45.586,18.131,42.966,20.388,38.535,20.388 M3.425,2.848v28.504h29.121L61.045,2.848H3.425z"/>
</svg>
