<?xml version="1.0" encoding="utf-8"?>
<!-- Generator: Adobe Illustrator 15.0.0, SVG Export Plug-In . SVG Version: 6.00 Build 0)  -->
<!DOCTYPE svg PUBLIC "-//W3C//DTD SVG 1.1//EN" "http://www.w3.org/Graphics/SVG/1.1/DTD/svg11.dtd">
<svg version="1.1" id="Layer_1" xmlns="http://www.w3.org/2000/svg" xmlns:xlink="http://www.w3.org/1999/xlink" x="0px" y="0px"
	 width="154px" height="23px" viewBox="0 0 154 23" enable-background="new 0 0 154 23" xml:space="preserve">
<path fill="#FFFFFF" d="M139.613,4.626c-2.144,0-3.582,1.5-3.582,3.733c0,2.438,2.344,4.774,5.058,7.478l1.63,1.627l1.627-1.627
	c2.719-2.704,5.062-5.04,5.062-7.478c0-2.233-1.438-3.733-3.582-3.733c-0.911,0-1.771,0.369-2.421,1.04l-0.686,0.708l-0.685-0.708
	C141.384,4.995,140.525,4.626,139.613,4.626 M142.719,20.158l-2.974-2.971c-3.019-3.002-5.622-5.598-5.622-8.829
	c0-3.268,2.311-5.639,5.49-5.639c1.129,0,2.204,0.357,3.105,1.02c0.9-0.663,1.979-1.02,3.106-1.02c3.181,0,5.491,2.371,5.491,5.639
	c0,3.23-2.608,5.827-5.622,8.829L142.719,20.158z"/>
<path fill="#FFFFFF" d="M124.906,15.332l0.835-1.176c0.629,0.549,1.569,0.901,2.42,0.901c0.65,0,1.109-0.222,1.109-0.68
	c0-0.483-0.366-0.666-1.32-0.835c-1.318-0.236-2.729-0.549-2.729-2.183c0-1.398,1.148-2.207,2.702-2.207
	c1.424,0,2.285,0.366,3.057,0.979l-0.822,1.189c-0.705-0.483-1.397-0.757-2.053-0.757c-0.599,0-0.938,0.235-0.938,0.614
	c0,0.418,0.377,0.588,1.238,0.745c1.373,0.235,2.823,0.548,2.823,2.129c0,1.685-1.464,2.351-3.068,2.351
	C126.632,16.402,125.611,15.934,124.906,15.332 M120.074,16.26V9.296h2.103v1.164h0.012c0.382-0.588,1.048-1.307,2.353-1.307h0.063
	l-0.024,1.869c-0.077-0.014-0.418-0.04-0.549-0.04c-0.836,0-1.461,0.444-1.854,0.954v4.324H120.074z M116.755,12.798
	c0-1.163-0.405-2.104-1.448-2.104c-1.006,0-1.465,0.85-1.465,2.104c0,1.163,0.393,2.129,1.465,2.129
	C116.299,14.927,116.755,14.064,116.755,12.798 M111.739,12.785c0-2.731,1.87-3.632,3.567-3.632c1.685,0,3.551,0.901,3.551,3.632
	c0,2.703-1.866,3.617-3.551,3.617S111.739,15.488,111.739,12.785 M107.232,14.3v-3.475h-1.161V9.296h1.161v-2.39h2.092v2.39h1.79
	v1.529h-1.79v3.018c0,0.744,0.21,0.979,0.966,0.979c0.235,0,0.549-0.026,0.692-0.078v1.502c-0.155,0.039-0.926,0.105-1.386,0.105
	C107.536,16.352,107.232,15.607,107.232,14.3 M99.045,12.785c0-2.784,1.972-3.632,3.513-3.632c1.896,0,2.626,1.006,3.031,2.129
	l-1.764,0.588c-0.275-0.888-0.682-1.176-1.293-1.176c-0.85,0-1.386,0.719-1.386,2.104c0,1.241,0.394,2.129,1.36,2.129
	c0.562,0,1.069-0.3,1.369-1.241l1.739,0.602c-0.443,1.084-1.307,2.115-3.15,2.115C100.835,16.402,99.045,15.488,99.045,12.785
	 M95.844,14.182v-1.293c-1.66,0.17-2.365,0.588-2.365,1.229c0,0.443,0.312,0.666,0.77,0.666
	C94.982,14.783,95.489,14.535,95.844,14.182 M91.427,14.482c0-1.607,1.36-2.496,4.417-2.744v-0.17c0-0.508-0.262-0.836-0.941-0.836
	c-0.888,0-1.647,0.367-2.285,0.863l-0.891-1.201c0.692-0.628,1.739-1.242,3.476-1.242c1.907,0,2.692,0.94,2.692,2.73v2.678
	c0,0.837,0.053,1.346,0.195,1.699h-2.091c-0.091-0.287-0.155-0.627-0.155-1.02c-0.642,0.719-1.397,1.123-2.432,1.123
	C92.343,16.363,91.427,15.672,91.427,14.482 M85.519,16.26V6.592h6.39V8.37h-4.26v2.351h3.03v1.684h-3.03v3.855H85.519z
	 M77.92,15.332l0.837-1.176c0.625,0.549,1.567,0.901,2.415,0.901c0.655,0,1.111-0.222,1.111-0.68c0-0.483-0.367-0.666-1.318-0.835
	c-1.321-0.236-2.732-0.549-2.732-2.183c0-1.398,1.149-2.207,2.703-2.207c1.428,0,2.288,0.366,3.058,0.979l-0.823,1.189
	c-0.705-0.483-1.398-0.757-2.048-0.757c-0.604,0-0.942,0.235-0.942,0.614c0,0.418,0.379,0.588,1.241,0.745
	c1.372,0.235,2.821,0.548,2.821,2.129c0,1.685-1.461,2.351-3.07,2.351C79.644,16.402,78.626,15.934,77.92,15.332 M70.939,15.332
	l0.836-1.176c0.625,0.549,1.567,0.901,2.416,0.901c0.654,0,1.11-0.222,1.11-0.68c0-0.483-0.367-0.666-1.317-0.835
	c-1.321-0.236-2.732-0.549-2.732-2.183c0-1.398,1.148-2.207,2.703-2.207c1.427,0,2.289,0.366,3.058,0.979l-0.824,1.189
	c-0.704-0.483-1.396-0.757-2.048-0.757c-0.603,0-0.941,0.235-0.941,0.614c0,0.418,0.38,0.588,1.24,0.745
	c1.373,0.235,2.822,0.548,2.822,2.129c0,1.685-1.462,2.351-3.07,2.351C72.663,16.402,71.645,15.934,70.939,15.332 M68.482,12.105
	c-0.103-0.98-0.549-1.451-1.33-1.451c-0.654,0-1.217,0.432-1.372,1.451H68.482z M63.664,12.785c0-2.705,2.063-3.632,3.5-3.632
	s3.202,0.719,3.202,3.88v0.312h-4.612c0.102,1.15,0.744,1.594,1.618,1.594c0.823,0,1.596-0.404,2.064-0.836l0.811,1.254
	c-0.811,0.693-1.815,1.045-3.031,1.045C65.4,16.402,63.664,15.476,63.664,12.785 M56.622,12.795c0-2.775,1.967-3.622,3.503-3.622
	c1.891,0,2.62,1.004,3.023,2.124l-1.76,0.586c-0.273-0.886-0.678-1.172-1.289-1.172c-0.846,0-1.381,0.716-1.381,2.098
	c0,1.236,0.393,2.123,1.356,2.123c0.56,0,1.065-0.3,1.364-1.238l1.734,0.6c-0.441,1.08-1.302,2.109-3.141,2.109
	C58.407,16.402,56.622,15.492,56.622,12.795 M49.367,12.785c0-2.784,1.972-3.632,3.513-3.632c1.896,0,2.626,1.006,3.032,2.129
	L54.15,11.87c-0.274-0.888-0.68-1.176-1.297-1.176c-0.848,0-1.384,0.719-1.384,2.104c0,1.241,0.393,2.129,1.359,2.129
	c0.562,0,1.071-0.3,1.372-1.241l1.735,0.602c-0.442,1.084-1.305,2.115-3.146,2.115C51.157,16.402,49.367,15.488,49.367,12.785
	 M41.701,14.378V9.296h2.103v4.468c0,0.627,0.236,0.967,0.823,0.967c0.562,0,1.044-0.3,1.516-0.705V9.296h2.104v6.964h-2.104v-1.084
	c-0.418,0.535-1.189,1.227-2.402,1.227C42.55,16.402,41.701,15.814,41.701,14.378 M32.689,14.064l1.609-0.953
	c0.532,1.057,1.499,1.646,2.61,1.646c0.979,0,1.685-0.366,1.685-1.11c0-0.73-0.688-1.045-1.959-1.398
	c-1.724-0.482-3.527-0.927-3.527-2.952c0-1.802,1.41-2.887,3.488-2.887c1.985,0,3.163,0.954,3.842,1.986l-1.477,1.124
	c-0.511-0.823-1.436-1.372-2.378-1.372c-0.899,0-1.398,0.392-1.398,0.967c0,0.771,0.72,1.045,1.986,1.398
	c1.697,0.457,3.5,0.993,3.5,2.991c0,1.555-1.174,2.938-3.864,2.938C34.716,16.441,33.408,15.449,32.689,14.064 M22.907,11.178h1.447
	c1.318,0,1.816-0.509,1.816-1.437c0-0.902-0.482-1.411-1.816-1.411h-1.447V11.178z M20.788,16.26V6.592h3.517
	c2.062,0,3.943,0.549,3.943,3.097c0,2.601-2.039,3.136-3.973,3.136h-1.368v3.436H20.788z M14.073,12.562h2.274l-1.11-3.293h-0.025
	L14.073,12.562z M10.847,16.26l3.423-9.707h2.024l3.424,9.707h-2.154l-0.721-2.156h-3.291l-0.746,2.156H10.847z M2.476,14.064
	l1.608-0.953c0.533,1.057,1.5,1.646,2.611,1.646c0.979,0,1.685-0.366,1.685-1.11c0-0.73-0.69-1.045-1.96-1.398
	c-1.723-0.482-3.526-0.927-3.526-2.952c0-1.802,1.41-2.887,3.488-2.887c1.985,0,3.162,0.954,3.842,1.986L8.747,9.519
	C8.236,8.696,7.31,8.146,6.369,8.146c-0.9,0-1.398,0.392-1.398,0.967c0,0.771,0.718,1.045,1.985,1.398
	c1.698,0.457,3.501,0.993,3.501,2.991c0,1.555-1.174,2.938-3.864,2.938C4.502,16.441,3.193,15.449,2.476,14.064"/>
</svg>
